<svg height="173" viewBox="0 0 150 173" width="150" xmlns="http://www.w3.org/2000/svg"><g fill="none"><path d="m149.167 129.183-74.584 43.06-74.583-43.06v-86.122l74.583-43.061 74.584 43.061z" fill="#585858"/><g fill="#fff" transform="matrix(1 0 0 -1 38 135)"><path d="m29.8458333 98.8883333c-2.01875-2.645-5.3635416-4.7916666-9.3020833-5.9991666l-1.54375-.46v-7.705-7.7241667h19 19v7.7241667 7.705l-1.54375.4791666c-4.0177083 1.2458334-7.24375 3.3158334-9.321875 5.9991667l-.8510417 1.0925h-7.2833333-7.2833333zm9.9552084-4.0825c.8114583-.5558333 1.1677083-1.3225 1.1875-2.5491666.0395833-1.6291667-.95-2.7216667-2.6322917-2.875-1.1083333-.0958334-2.3354167.4216666-2.9291667 1.2266666-.8708333 1.1691667-.4947916 3.3158334.7322917 4.1975.7916667.5558334 2.8302083.5558334 3.6416667 0z"/><path d="m2.40234375 89.5830508-2.40234375-2.3974576v-41.9652542-41.94576273l1.6015625-1.63728813 1.6015625-1.63728814h34.296875 34.296875l1.6015625 1.63728814 1.6015625 1.63728813v41.94576273 41.9652542l-2.3828125 2.3974576-2.4023437 2.4169492h-5.4101563-5.4296875v-3.1186441-3.118644h4.0625 4.0625l.625-.6432204.625-.6432203v-39.1779661-39.17796612l-.7421875-.72118644-.7421875-.72118644h-29.7851562-29.7851563l-.72265625.74067797-.72265625.74067796v39.17796607 39.1779661l.64453125.6237289.64453125.6237288h4.0429688 4.0429687v3.118644 3.1186441h-5.4101562-5.42968755z"/><path d="m36.0273438 57.8001778-4.609375-9.1804541-.9375 1.3751313c-.5273438.7359858-1.0742188 1.4719716-1.2109376 1.6075479-.1367187.1549444-.2539062.3098888-.2539062.3679929s-.4101562.6778816-.8984375 1.3751313l-.8984375 1.258923h-7.109375-7.109375v-3.0988874-3.0988875h5.4296875l5.4101563-.019368 1.0546874-1.5881799c.5859376-.8715621 1.25-1.8980685 1.484375-2.2660614 1.5625-2.47911 4.4726563-6.8950246 4.609375-6.9337607.0976563-.0387361.1757813-.1743124.1757813-.2905207 0-.2905207.9179687-1.4332355 1.0351563-1.2976592.0390624.0581042 2.1289062 4.1641301 4.6289062 9.1610861 2.5 4.977588 4.5898438 9.0448778 4.6289062 9.0448778.1367188 0 .6445313-.5423053.6445313-.6778816 0-.1162083 1.71875-2.5953183 1.953125-2.8083668.0585937-.0581041.4296875-.6004094.8398437-1.2008189l.7226563-1.1233467h8.6914063 8.6914062v3.0988875 3.0988874h-7.0117188-6.9921874l-1.25 1.9561728c-.6835938 1.0652425-1.6796876 2.5953182-2.2265626 3.4087762-.5273437.8134579-1.0546874 1.6269159-1.171875 1.7818603-.0976562.1743124-.5859374.9102981-1.0742187 1.6462839-1.484375 2.2854295-1.7578125 2.7115266-1.9921875 3.1763597-.1171875.2324165-.3125.426097-.4296875.426097s-2.2851563-4.144762-4.8242187-9.1998222z"/><path d="m13 23v-3h12.5 12.5v3 3h-12.5-12.5z"/><path d="m13 14v-3h8 8v3 3h-8-8z"/></g></g></svg>
